<svg width="332" height="279" viewBox="0 0 332 279" fill="none" xmlns="http://www.w3.org/2000/svg">
<path d="M327.664 261.574L300.495 274.295L237.412 139.558L264.582 126.838L327.664 261.574ZM95.7396 13.2965L32.7719 271.488L3.62537 264.38L66.5941 6.18904L95.7396 13.2965ZM283.648 15.5572L217.836 172.051L240.354 264.38L211.208 271.488L162.813 73.0494L114.418 271.488L85.2719 264.38L148.241 6.18904H177.386L205.89 123.068L255.994 3.9283L283.648 15.5572Z" fill="#4A00C9"/>
<path d="M177.386 188.305V158.305H147.686V188.305H177.386Z" fill="#D2B8FF"/>
<path d="M97.6644 188.305V158.305H66.3177V188.305H97.6644Z" fill="#D2B8FF"/>
<path d="M327.664 261.574L300.495 274.295L237.412 139.558L264.582 126.838L327.664 261.574ZM95.7396 13.2965L32.7719 271.488L3.62537 264.38L66.5941 6.18904L95.7396 13.2965ZM283.648 15.5572L217.836 172.051L240.354 264.38L211.208 271.488L162.813 73.0494L114.418 271.488L85.2719 264.38L148.241 6.18904H177.386L205.89 123.068L255.994 3.9283L283.648 15.5572Z" stroke="#141A36" stroke-width="6"/>
<path d="M177.386 188.305V158.305H147.686V188.305H177.386Z" stroke="#141A36" stroke-width="6"/>
<path d="M97.6644 188.305V158.305H66.3177V188.305H97.6644Z" stroke="#141A36" stroke-width="6"/>
</svg>
