<svg width="243" height="267" viewBox="0 0 243 267" fill="none" xmlns="http://www.w3.org/2000/svg">
<path d="M121.286 8C153.636 8 182.604 12.1495 203.215 18.6543C213.567 21.9214 221.363 25.6439 226.399 29.4014C231.579 33.267 232.556 36.1387 232.556 37.6416C232.556 39.1444 231.58 42.0159 226.399 45.8818C221.363 49.6393 213.567 53.3627 203.215 56.6299C182.604 63.1347 153.636 67.2842 121.286 67.2842C88.9365 67.2841 59.9693 63.1347 39.3587 56.6299C29.0065 53.3627 21.2108 49.6393 16.1751 45.8818C10.9941 42.0159 10.0179 39.1444 10.0179 37.6416C10.018 36.1387 10.9945 33.267 16.1751 29.4014C21.2108 25.6439 29.0068 21.9214 39.3587 18.6543C59.9693 12.1495 88.9365 8.00004 121.286 8Z" stroke="white" stroke-width="16"/>
<path d="M240.556 101.424L240.546 101.911C239.719 122.476 186.641 139.067 121.286 139.067L118.208 139.054C53.761 138.539 2.01837 121.888 2.01785 101.424H18.803C19.2799 101.901 19.9693 102.514 20.9593 103.253C24.9954 106.265 31.8546 109.655 41.7669 112.783C61.4047 118.981 89.5219 123.067 121.286 123.067C153.051 123.067 181.169 118.981 200.807 112.783C210.719 109.655 217.578 106.265 221.615 103.253C222.357 102.699 222.93 102.215 223.371 101.807L223.77 101.424H240.556Z" fill="white"/>
<path d="M240.556 165.206L240.546 165.693C239.719 186.258 186.641 202.849 121.286 202.849L118.208 202.836C53.761 202.321 2.01837 185.67 2.01785 165.206H18.803C19.2799 165.683 19.9693 166.297 20.9593 167.035C24.9954 170.047 31.8546 173.437 41.7669 176.566C61.4047 182.763 89.5219 186.849 121.286 186.849C153.051 186.849 181.169 182.763 200.807 176.566C210.719 173.437 217.578 170.047 221.615 167.035C222.357 166.481 222.93 165.997 223.371 165.589L223.77 165.206H240.556Z" fill="white"/>
<path d="M240.556 228.988L240.546 229.476C239.72 250.04 186.641 266.631 121.286 266.631L118.208 266.618C53.7609 266.103 2.01835 249.452 2.01785 228.988H18.803C19.2799 229.465 19.9693 230.079 20.9593 230.817C24.9954 233.829 31.8546 237.219 41.7669 240.348C61.4047 246.545 89.5219 250.631 121.286 250.631C153.051 250.631 181.169 246.545 200.807 240.348C210.719 237.219 217.578 233.829 221.615 230.817C222.357 230.263 222.93 229.78 223.371 229.371L223.77 228.988H240.556Z" fill="white"/>
<path d="M234.574 37.4565L234.574 229.073" stroke="white" stroke-width="16"/>
<path d="M8 37.4565L8.00001 229.073" stroke="white" stroke-width="16"/>
<ellipse cx="53.9766" cy="153.704" rx="12.9897" ry="11.5017" fill="white"/>
<ellipse cx="53.9766" cy="93.0592" rx="12.9897" ry="11.5017" fill="white"/>
<ellipse cx="53.9766" cy="220.623" rx="12.9897" ry="11.5017" fill="white"/>
</svg>
