<svg width="202" height="255" viewBox="0 0 202 255" fill="none" xmlns="http://www.w3.org/2000/svg">
<path d="M101 8C128.223 8 152.522 11.9462 169.731 18.0801C178.371 21.1594 184.796 24.6397 188.907 28.1045C193.057 31.6017 194 34.3041 194 36C194 37.6959 193.057 40.3983 188.907 43.8955C184.796 47.3603 178.371 50.8406 169.731 53.9199C152.522 60.0538 128.223 64 101 64C73.7771 64 49.4776 60.0538 32.2686 53.9199C23.6292 50.8406 17.2044 47.3603 13.0928 43.8955C8.94276 40.3983 8 37.6959 8 36C8 34.3041 8.94276 31.6017 13.0928 28.1045C17.2044 24.6397 23.6292 21.1594 32.2686 18.0801C49.4776 11.9462 73.7771 8 101 8Z" stroke="white" stroke-width="16"/>
<path d="M202 97C202 116.882 156.781 133 101 133C45.2192 133 0 116.882 0 97H16.4316C16.7883 97.4309 17.356 98.0266 18.248 98.7783C21.3605 101.401 26.8141 104.483 34.9541 107.385C51.0949 113.138 74.4442 117 101 117C127.556 117 150.905 113.138 167.046 107.385C175.186 104.483 180.64 101.401 183.752 98.7783C184.644 98.0268 185.211 97.4308 185.567 97H202Z" fill="white"/>
<path d="M202 158C202 177.882 156.781 194 101 194C45.2192 194 0 177.882 0 158H16.4316C16.7883 158.431 17.356 159.027 18.248 159.778C21.3605 162.401 26.8141 165.483 34.9541 168.385C51.0949 174.138 74.4442 178 101 178C127.556 178 150.905 174.138 167.046 168.385C175.186 165.483 180.64 162.401 183.752 159.778C184.644 159.027 185.211 158.431 185.567 158H202Z" fill="white"/>
<path d="M202 219C202 238.882 156.781 255 101 255C45.2192 255 0 238.882 0 219H16.4316C16.7883 219.431 17.356 220.027 18.248 220.778C21.3605 223.401 26.8141 226.483 34.9541 229.385C51.0949 235.138 74.4442 239 101 239C127.556 239 150.905 235.138 167.046 229.385C175.186 226.483 180.64 223.401 183.752 220.778C184.644 220.027 185.211 219.431 185.567 219H202Z" fill="white"/>
<path d="M194 36L194 223" stroke="white" stroke-width="16"/>
<path d="M8 36L8.00001 223" stroke="white" stroke-width="16"/>
<circle cx="44" cy="147" r="11" fill="white"/>
<circle cx="44" cy="89" r="11" fill="white"/>
<circle cx="44" cy="211" r="11" fill="white"/>
</svg>
