<svg width="308" height="276" viewBox="0 0 308 276" fill="none" xmlns="http://www.w3.org/2000/svg">
<rect x="38" y="44" width="236" height="156" stroke="white" stroke-width="16"/>
<path d="M8 35.5C3.58172 35.5 0 39.0817 0 43.5C0 47.9183 3.58172 51.5 8 51.5V43.5V35.5ZM300 51.5C304.418 51.5 308 47.9183 308 43.5C308 39.0817 304.418 35.5 300 35.5V43.5V51.5ZM155.078 200L162.239 196.434H147.917L155.078 200ZM114.051 264.434C112.081 268.388 113.69 273.191 117.645 275.161C121.6 277.131 126.403 275.521 128.373 271.566L121.212 268L114.051 264.434ZM181.784 271.566C183.754 275.521 188.556 277.131 192.511 275.161C196.466 273.191 198.076 268.388 196.106 264.434L188.945 268L181.784 271.566ZM163.078 8C163.078 3.58172 159.497 0 155.078 0C150.66 0 147.078 3.58172 147.078 8H155.078H163.078ZM71.1166 152.155C67.8886 155.172 67.7174 160.234 70.7342 163.462C73.7511 166.69 78.8135 166.862 82.0415 163.845L76.579 158L71.1166 152.155ZM132.219 106L136.726 99.3905L131.435 95.7826L126.756 100.155L132.219 106ZM183.545 141L179.038 147.61L184.524 151.35L189.211 146.648L183.545 141ZM256.496 79.1478C259.615 76.0187 259.607 70.9533 256.478 67.8341C253.349 64.7149 248.283 64.723 245.164 67.8522L250.83 73.5L256.496 79.1478ZM155.078 200L147.917 196.434L114.051 264.434L121.212 268L128.373 271.566L162.239 203.566L155.078 200ZM155.078 200L147.917 203.566L181.784 271.566L188.945 268L196.106 264.434L162.239 196.434L155.078 200ZM8 43.5V51.5H155.078V43.5V35.5H8V43.5ZM155.078 43.5V51.5H300V43.5V35.5H155.078V43.5ZM155.078 43.5H163.078V8H155.078H147.078V43.5H155.078ZM76.579 158L82.0415 163.845L137.681 111.845L132.219 106L126.756 100.155L71.1166 152.155L76.579 158ZM132.219 106L127.712 112.61L179.038 147.61L183.545 141L188.052 134.39L136.726 99.3905L132.219 106ZM183.545 141L189.211 146.648L256.496 79.1478L250.83 73.5L245.164 67.8522L177.879 135.352L183.545 141Z" fill="white"/>
</svg>
