<svg width="284" height="306" viewBox="0 0 284 306" fill="none" xmlns="http://www.w3.org/2000/svg">
<g filter="url(#filter0_d_1_70)">
<rect x="12" y="93.5" width="260" height="196" stroke="white" stroke-width="16" shape-rendering="crispEdges"/>
</g>
<path d="M12 162.5C218.4 162.5 270 162.5 270 162.5M12 227.5H270" stroke="white" stroke-width="16" stroke-linecap="square"/>
<path d="M238 251C242.047 251 245.69 252.204 248.311 254.125C250.931 256.047 252.5 258.66 252.5 261.5C252.5 264.34 250.931 266.953 248.311 268.875C245.69 270.796 242.047 272 238 272C233.953 272 230.31 270.796 227.689 268.875C225.069 266.953 223.5 264.34 223.5 261.5C223.5 258.66 225.069 256.047 227.689 254.125C230.31 252.204 233.953 251 238 251Z" fill="white" stroke="white"/>
<path d="M238 184C242.042 184 245.683 185.256 248.303 187.265C250.922 189.273 252.5 192.012 252.5 195C252.5 197.988 250.922 200.727 248.303 202.735C245.683 204.744 242.042 206 238 206C233.958 206 230.317 204.744 227.697 202.735C225.078 200.727 223.5 197.988 223.5 195C223.5 192.012 225.078 189.273 227.697 187.265C230.317 185.256 233.958 184 238 184Z" fill="white" stroke="white"/>
<path d="M238 120C242.042 120 245.683 121.256 248.303 123.265C250.922 125.273 252.5 128.012 252.5 131C252.5 133.988 250.922 136.727 248.303 138.735C245.683 140.744 242.042 142 238 142C233.958 142 230.317 140.744 227.697 138.735C225.078 136.727 223.5 133.988 223.5 131C223.5 128.012 225.078 125.273 227.697 123.265C230.317 121.256 233.958 120 238 120Z" fill="white" stroke="white"/>
<path d="M12 87.5L64.5182 8H220L272 87.5" stroke="white" stroke-width="16" stroke-linecap="round"/>
<defs>
<filter id="filter0_d_1_70" x="0" y="85.5" width="284" height="220" filterUnits="userSpaceOnUse" color-interpolation-filters="sRGB">
<feFlood flood-opacity="0" result="BackgroundImageFix"/>
<feColorMatrix in="SourceAlpha" type="matrix" values="0 0 0 0 0 0 0 0 0 0 0 0 0 0 0 0 0 0 127 0" result="hardAlpha"/>
<feOffset dy="4"/>
<feGaussianBlur stdDeviation="2"/>
<feComposite in2="hardAlpha" operator="out"/>
<feColorMatrix type="matrix" values="0 0 0 0 0 0 0 0 0 0 0 0 0 0 0 0 0 0 0.25 0"/>
<feBlend mode="normal" in2="BackgroundImageFix" result="effect1_dropShadow_1_70"/>
<feBlend mode="normal" in="SourceGraphic" in2="effect1_dropShadow_1_70" result="shape"/>
</filter>
</defs>
</svg>
